<?xml version="1.0" encoding="utf-8"?>
<!-- Generator: Adobe Illustrator 17.0.0, SVG Export Plug-In . SVG Version: 6.00 Build 0)  -->
<!DOCTYPE svg PUBLIC "-//W3C//DTD SVG 1.1//EN" "http://www.w3.org/Graphics/SVG/1.1/DTD/svg11.dtd">
<svg version="1.1" id="Layer_1" xmlns="http://www.w3.org/2000/svg" xmlns:xlink="http://www.w3.org/1999/xlink" x="0px" y="0px"
	 width="829.707px" height="835.304px" viewBox="0 0 829.707 835.304" enable-background="new 0 0 829.707 835.304"
	 xml:space="preserve">
<path fill="#0055A3" d="M115.968,151.228C228.296-9.178,449.378-48.171,609.813,64.157
	c126.191,88.36,177.229,244.039,138.578,384.53c-5.362-114.86-62.017-226.086-163.505-297.144
	C427.462,41.305,216.102,65.535,87.176,200.19C95.318,183.39,104.905,167.024,115.968,151.228"/>
<path fill="#0055A3" d="M293.091,829.895C100.208,795.892-28.559,611.968,5.446,419.115
	C32.2,267.391,151.725,155.317,295.405,130.96C193.572,184.371,116.686,282.73,95.184,404.741
	C61.8,594.021,173.108,775.37,349.633,835.304C330.961,835.019,312.063,833.252,293.091,829.895"/>
<path fill="#0055A3" d="M817.54,365.195c50.678,189.16-61.582,383.599-250.749,434.292
	c-148.82,39.876-300.881-21.107-383.668-141.021c91.438,69.716,213.067,97.819,332.735,65.761
	c185.647-49.733,302.956-227.23,282.673-412.563C806.171,328.703,812.552,346.59,817.54,365.195"/>
<path d="M277.887,505.07v-19.204h-44.693v-21.332h-13.303v29.15h45.915v18.486c0,17.767-31.114,25.407-31.114,52.055v5.154h12.089
	v-12.253C246.78,539.36,277.887,531.54,277.887,505.07"/>
<path d="M354.771,569.379c-6.5-10.651-13.144-21.316-19.787-31.802c9.818-13.333,16.919-31.818,16.919-49.584v-2.126h-11.475
	c0,15.099-2.577,30.395-11.024,42.304c-9.528-13.514-18.426-27.565-26.59-42.304h-14.201l14.65,22.918
	c-9.512,22.215-12.074,36.251-15.25,60.594h11.476c2.119-17.063,4.081-34.648,10.275-50.466c5.123,5.87,9.362,13.332,13.438,20.071
	c6.045,9.962,11.782,20.089,17.077,30.395H354.771"/>
<path d="M422.616,569.379v-42.108c0-27.548-16.614-43.368-39.113-43.368h-3.925c-6.95,0-8.472,0.734-15.265,1.783l2.27,8.689
	c4.681-3.355,11.317-4.42,16.763-4.42c17.519,0,25.99,17.781,25.99,36.433v42.991L422.616,569.379"/>
<path d="M507.47,485.866h-12.39c-0.283,14.23-1.362,28.431-2.411,42.468c-1.363,17.946-9.378,33.239-26.125,33.239h-12.986
	l-4.391-75.707h-12.073l4.823,83.513h21.452c24.327,0,39.276-5.692,41.225-37.494C505.672,516.605,506.571,501.146,507.47,485.866
	 M479.067,491.738v-5.872h-12.074c0,11.564,0.3,23.818-3.475,34.828c-1.349,3.729-3.326,8.523-6.501,10.486l2.575,4.809
	c3.177-1.618,7.551-4.104,9.963-6.771C478.319,519.811,479.067,504.875,479.067,491.738z"/>
<polyline points="532.547,522.477 532.547,485.866 520.473,485.866 520.473,528.514 532.547,522.477 "/>
<path d="M609.813,569.379v-7.806h-7.4v-34.302c0-27.175-14.801-43.368-37.615-43.368h-3.924c-6.951,0-13.588,1.423-20.389,3.026
	l2.248,8.703c4.703-3.354,16.478-5.677,21.915-5.677c17.661,0,24.462,18.126,24.462,36.433v35.186h-46.812v7.806L609.813,569.379"/>
<path d="M300.103,452.565h-40.791v-69.656c4.832-1.588,9.835-1.963,14.807-1.963c17.378,0,25.984,17.781,25.984,36.432
	L300.103,452.565 M313.389,460.399v-42.124c0-27.368-16.612-43.352-39.119-43.352c-9.82,0-19.789,1.236-29.144,4.793l2.12,6.217
	v74.465L313.389,460.399L313.389,460.399z"/>
<polyline points="337.178,413.467 337.178,376.872 325.104,376.872 325.104,419.504 337.178,413.467 "/>
<path d="M410.07,417.377c0,16.178-6.66,39.458-23.272,39.458c-17.212,0-23.556-19.025-23.556-36.432v-35.892
	c7.558-3.378,10.875-3.73,19.189-3.73C401.156,380.781,410.07,396.945,410.07,417.377 M423.356,418.276
	c0-27.188-19.023-43.352-40.925-43.352c-13.152,0-20.253,1.056-32.476,6.022v36.806c0,25.046,13.586,44.594,35.65,44.594
	C407.643,462.346,423.356,444.207,423.356,418.276z"/>
<path d="M509.267,418.276c0-27.368-16.447-43.352-39.113-43.352c-6.335,0-11.473,2.832-16.612,7.101
	c-3.924-5.153-9.976-6.583-15.549-6.396h-1.063l-2.269,5.504c9.818,0,10.883,6.936,10.883,17.759c0,7.475-1.229,16.538-1.828,23.998
	c-1.198,12.613-3.012,25.061-4.823,37.509h12.089c1.812-12.104,3.609-24.357,4.838-36.626c0.749-8.343,1.948-16.702,1.948-25.046
	c0-9.063,6.949-17.781,14.814-17.781c17.976,0,23.413,18.485,23.413,36.432c0,19.728-8.478,37.494-27.053,37.494
	c-2.248,0-4.226-1.423-6.337-2.306l-1.363,8.345c3.175,0.718,6.352,1.436,9.378,1.436
	C493.568,462.346,509.267,445.808,509.267,418.276"/>
<path d="M523.109,460.399h12.089v-47.097h-12.089V460.399z M583.821,460.399v-42.124c0-27.541-16.612-43.352-39.142-43.352h-3.895
	c-6.951,0-13.617,1.409-20.403,3.019l2.263,8.71c4.523-3.386,16.463-5.708,21.915-5.708c17.512,0,25.961,17.781,25.961,36.432
	v43.022L583.821,460.399L583.821,460.399z"/>
<path d="M364.814,351.39v-42.108c0-27.369-16.612-43.368-39.111-43.368c-8.449,0-16.614,2.135-24.62,4.809l2.719,6.209v47.793
	c0,9.25-0.6,22.395-11.168,22.395c-2.269,0-4.531-0.704-6.801-1.236v4.262c4.083,1.783,8.3,3.19,12.688,3.19
	c15.25,0,17.361-12.965,17.361-27.884v-52.416c3.176-0.727,6.509-1.078,9.67-1.078c17.526,0,25.983,17.766,25.983,36.431v43h13.279"
	/>
<rect x="377.443" y="267.862" width="12.089" height="83.528"/>
<path d="M472.821,267.862h-12.374c-0.314,14.224-1.363,28.447-2.412,42.483c-1.362,17.946-9.377,33.219-26.141,33.219h-12.986
	l-4.375-75.702h-12.089l4.832,83.528h21.443c24.342,0,39.262-5.692,41.239-37.487C471.008,298.609,471.922,283.157,472.821,267.862
	 M444.435,273.742v-5.88H432.36c0,11.572,0.291,23.826-3.483,34.843c-1.363,3.723-3.312,8.524-6.486,10.472l2.561,4.801
	c3.177-1.595,7.543-4.075,9.971-6.748C443.686,301.814,444.435,286.887,444.435,273.742z"/>
<path d="M541.849,351.39v-42.108c0-27.548-16.613-43.368-39.112-43.368h-3.925c-6.951,0-8.449,0.712-15.25,1.783l2.247,8.71
	c4.688-3.371,11.354-4.449,16.777-4.449c17.512,0,25.976,17.766,25.976,36.431v43h13.287"/>
</svg>
